<svg width="20.000000" height="20.000000" viewBox="0 0 20 20" fill="none" xmlns="http://www.w3.org/2000/svg" xmlns:xlink="http://www.w3.org/1999/xlink">
	<desc>
			Created with Pixso.
	</desc>
	<defs/>
	<rect id="checkbox-auto" rx="2.500000" width="19.000000" height="19.000000" transform="translate(0.500000 0.500000)" fill="#7397F5" fill-opacity="1.000000"/>
	<path id="Vector" d="M13.71 6.21C13.88 6.04 14.12 5.95 14.36 5.95C14.6 5.95 14.84 6.05 15.01 6.22C15.18 6.39 15.28 6.62 15.29 6.86C15.3 7.1 15.21 7.34 15.05 7.52L10.06 13.76C9.97 13.85 9.87 13.92 9.75 13.98C9.64 14.03 9.51 14.05 9.39 14.06C9.26 14.06 9.14 14.04 9.02 13.99C8.9 13.94 8.8 13.87 8.71 13.78L5.4 10.48C5.31 10.39 5.23 10.29 5.18 10.17C5.13 10.06 5.1 9.93 5.1 9.81C5.1 9.68 5.12 9.55 5.17 9.44C5.22 9.32 5.29 9.22 5.38 9.13C5.47 9.04 5.57 8.97 5.69 8.92C5.8 8.87 5.93 8.85 6.06 8.85C6.18 8.85 6.31 8.88 6.42 8.93C6.54 8.98 6.64 9.06 6.73 9.15L9.34 11.77L13.68 6.23C13.69 6.23 13.7 6.22 13.71 6.21L13.71 6.21Z" fill="#FFFFFF" fill-opacity="1.000000" fill-rule="nonzero"/>
	<rect id="checkbox-auto" rx="2.500000" width="19.000000" height="19.000000" transform="translate(0.500000 0.500000)" stroke="#7397F5" stroke-opacity="1.000000" stroke-width="1.000000"/>
</svg>

